<svg xmlns="http://www.w3.org/2000/svg" width="1000" height="194">
  <svg xmlns="http://www.w3.org/2000/svg" xmlns:xlink="http://www.w3.org/1999/xlink" width="1000" height="194" data-background-color="#ffffff" transform="translate(-.606 -.401)" viewBox="0 0 396 77">
    <svg width="395.52" height="76.681" transform="translate(.24 .16)" viewBox="0 0 395.52 76.681">
      <svg width="395.52" height="76.681" viewBox="0 0 395.52 76.681">
        <svg width="395.52" height="76.681" viewBox="0 0 395.52 76.681">
          <svg width="395.52" height="76.681" viewBox="0 0 395.52 76.681">
            <svg width="395.52" height="76.681" viewBox="0 0 395.52 76.681">
              <svg width="395.52" height="76.681" data-palette-color="#8d021f" viewBox="3.5 -35.7 188.34 36.4">
                <path fill="#4565d8" d="M3.5 0v-35h9.9v27.15h16.7V0H3.5Zm53.15-35h9.9V0h-9.6v-4q-1.7 2.3-4.3 3.5Q50.05.7 46.8.7q-6.2 0-9.65-3.98Q33.7-7.25 33.7-14.6V-35h9.9v20.1q0 3.7 1.67 5.55 1.68 1.85 4.58 1.85 3.05 0 4.92-2 1.88-2 1.88-5.9V-35Zm57.85-.7q6.2 0 9.67 3.68 3.48 3.67 3.48 10.62V0h-9.9v-21.1q0-3.15-1.66-4.78-1.64-1.62-4.39-1.62-2.95 0-4.68 1.72-1.72 1.73-1.72 5.18V0h-9.9v-21.1q0-3.15-1.53-4.78-1.53-1.62-4.17-1.62-2.86 0-4.55 1.72-1.7 1.73-1.7 5.18V0h-9.9v-35h9.6v3.9q1.6-2.25 4.12-3.42 2.53-1.18 5.88-1.18 3.44 0 6.02 1.25 2.58 1.25 4.17 3.65 1.81-2.4 4.71-3.65t6.45-1.25Zm39.49 8.35h-5.65v19.7h5.65V0h-21.25v-7.65h5.7v-19.7h-5.7V-35h21.25v7.65ZM176.79.7q-5.5 0-9.87-2.33-4.38-2.32-6.88-6.47t-2.5-9.4q0-5.25 2.5-9.4t6.88-6.48q4.37-2.32 9.87-2.32 4.8 0 8.65 1.7 3.85 1.7 6.4 4.9l-6.3 5.7q-3.4-4.1-8.25-4.1-2.85 0-5.07 1.25-2.23 1.25-3.45 3.52-1.23 2.28-1.23 5.23 0 2.95 1.23 5.22 1.22 2.28 3.45 3.53 2.22 1.25 5.07 1.25 4.85 0 8.25-4.1l6.3 5.7q-2.55 3.2-6.4 4.9-3.85 1.7-8.65 1.7Z" class="wordmark-text-0" data-fill-palette-color="primary"/>
              </svg>
            </svg>
          </svg>
        </svg>
      </svg>
    </svg>
  </svg>
</svg>
